<svg xmlns="http://www.w3.org/2000/svg" viewBox="0 0 100 100" width="100" height="100">
  <!-- Dark rounded background -->
  <rect width="100" height="100" rx="22" fill="#0E0B1A"/>

  <!-- Symbol centered with padding -->
  <svg x="6" y="6" width="88" height="88" viewBox="-5 -5 110 110">
    <!-- Outer pentagon -->
    <polygon points="50,8 90,36 75,80 25,80 10,36"
      fill="none" stroke="#B8924A" stroke-width="1.4" opacity="1"/>
    <!-- Inner pentagon -->
    <polygon points="50,27 72,42 64,67 36,67 28,42"
      fill="none" stroke="#B8924A" stroke-width="0.7" opacity="0.38"/>
    <!-- Pentagram star lines -->
    <polygon points="50,8 75,80 10,36 90,36 25,80"
      fill="none" stroke="#B8924A" stroke-width="0.5" opacity="0.14"/>
    <!-- Center circle -->
    <circle cx="50" cy="50" r="17" fill="rgba(184,146,74,0.12)" stroke="#B8924A" stroke-width="1.2"/>
    <!-- 美 -->
    <text x="50" y="50" text-anchor="middle" dominant-baseline="central"
      font-family="'Noto Serif CJK KR','Noto Serif KR',Batang,'Source Han Serif KR',STSong,serif"
      font-size="20" fill="#C8A860">美</text>
    <!-- 木 top -->
    <circle cx="50" cy="8" r="9" fill="rgba(90,140,58,0.20)" stroke="#6AA844" stroke-width="0.9"/>
    <text x="50" y="8" text-anchor="middle" dominant-baseline="central"
      font-family="'Noto Serif CJK KR','Noto Serif KR',Batang,STSong,serif"
      font-size="9" fill="#7AC050">木</text>
    <!-- 火 right-top -->
    <circle cx="90" cy="36" r="9" fill="rgba(200,72,48,0.20)" stroke="#D85840" stroke-width="0.9"/>
    <text x="90" y="36" text-anchor="middle" dominant-baseline="central"
      font-family="'Noto Serif CJK KR','Noto Serif KR',Batang,STSong,serif"
      font-size="9" fill="#E06848">火</text>
    <!-- 土 right-bottom -->
    <circle cx="75" cy="80" r="9" fill="rgba(184,146,74,0.20)" stroke="#C8A860" stroke-width="0.9"/>
    <text x="75" y="80" text-anchor="middle" dominant-baseline="central"
      font-family="'Noto Serif CJK KR','Noto Serif KR',Batang,STSong,serif"
      font-size="9" fill="#C8A860">土</text>
    <!-- 金 left-bottom -->
    <circle cx="25" cy="80" r="9" fill="rgba(96,112,144,0.20)" stroke="#7888A8" stroke-width="0.9"/>
    <text x="25" y="80" text-anchor="middle" dominant-baseline="central"
      font-family="'Noto Serif CJK KR','Noto Serif KR',Batang,STSong,serif"
      font-size="9" fill="#8898B8">金</text>
    <!-- 水 left-top -->
    <circle cx="10" cy="36" r="9" fill="rgba(58,104,152,0.20)" stroke="#4878B0" stroke-width="0.9"/>
    <text x="10" y="36" text-anchor="middle" dominant-baseline="central"
      font-family="'Noto Serif CJK KR','Noto Serif KR',Batang,STSong,serif"
      font-size="9" fill="#5888C0">水</text>
  </svg>
</svg>
